name Walk7.mot
datacolumns 19
datarows 22
range 1.64900000 1.67000000
endheader

                time	   L_ground_force_vx	   L_ground_force_vy	   L_ground_force_vz	   L_ground_force_px	   L_ground_force_py	   L_ground_force_pz	   R_ground_force_vx	   R_ground_force_vy	   R_ground_force_vz	   R_ground_force_px	   R_ground_force_py	   R_ground_force_pz	   L_ground_torque_x	   L_ground_torque_y	   L_ground_torque_z	   R_ground_torque_x	   R_ground_torque_y	   R_ground_torque_z	
          1.64900000	          0.00000000	          0.00000000	          0.00000000	          0.00000000	          0.00000000	          0.00000000	         19.29804625	        537.03744097	         35.39627571	         -0.32077111	          0.00000000	         -0.06630994	          0.00000000	          0.00000000	          0.00000000	          0.00000000	         -0.51199798	          0.00000000	
          1.65000000	          0.00000000	          0.00000000	          0.00000000	          0.00000000	          0.00000000	          0.00000000	         19.61824208	        538.74739449	         35.44896160	         -0.32043882	          0.00000000	         -0.06636947	          0.00000000	          0.00000000	          0.00000000	          0.00000000	         -0.52384230	          0.00000000	
          1.65100000	          0.00000000	          0.00000000	          0.00000000	          0.00000000	          0.00000000	          0.00000000	         19.94370586	        540.36429737	         35.47878471	         -0.32017576	          0.00000000	         -0.06632771	          0.00000000	          0.00000000	          0.00000000	          0.00000000	         -0.54083038	          0.00000000	
          1.65200000	          0.00000000	          0.00000000	          0.00000000	          0.00000000	          0.00000000	          0.00000000	         20.27587414	        541.90849059	         35.48251333	         -0.31994815	          0.00000000	         -0.06622999	          0.00000000	          0.00000000	          0.00000000	          0.00000000	         -0.55805254	          0.00000000	
          1.65300000	          0.00000000	          0.00000000	          0.00000000	          0.00000000	          0.00000000	          0.00000000	         20.59864145	        543.48046213	         35.47273996	         -0.31971810	          0.00000000	         -0.06613654	          0.00000000	          0.00000000	          0.00000000	          0.00000000	         -0.57255201	          0.00000000	
          1.65400000	          0.00000000	          0.00000000	          0.00000000	          0.00000000	          0.00000000	          0.00000000	         20.89509450	        545.16875464	         35.47252517	         -0.31946605	          0.00000000	         -0.06608719	          0.00000000	          0.00000000	          0.00000000	          0.00000000	         -0.58240552	          0.00000000	
          1.65500000	          0.00000000	          0.00000000	          0.00000000	          0.00000000	          0.00000000	          0.00000000	         21.16325538	        546.99672907	         35.50342642	         -0.31919412	          0.00000000	         -0.06608563	          0.00000000	          0.00000000	          0.00000000	          0.00000000	         -0.58842448	          0.00000000	
          1.65600000	          0.00000000	          0.00000000	          0.00000000	          0.00000000	          0.00000000	          0.00000000	         21.41384112	        548.92340785	         35.57421619	         -0.31890902	          0.00000000	         -0.06612112	          0.00000000	          0.00000000	          0.00000000	          0.00000000	         -0.59281761	          0.00000000	
          1.65700000	          0.00000000	          0.00000000	          0.00000000	          0.00000000	          0.00000000	          0.00000000	         21.66373321	        550.86893106	         35.67241591	         -0.31860455	          0.00000000	         -0.06618889	          0.00000000	          0.00000000	          0.00000000	          0.00000000	         -0.59414713	          0.00000000	
          1.65800000	          0.00000000	          0.00000000	          0.00000000	          0.00000000	          0.00000000	          0.00000000	         21.93336320	        552.74433354	         35.77085226	         -0.31827554	          0.00000000	         -0.06628103	          0.00000000	          0.00000000	          0.00000000	          0.00000000	         -0.58972895	          0.00000000	
          1.65900000	          0.00000000	          0.00000000	          0.00000000	          0.00000000	          0.00000000	          0.00000000	         22.23710717	        554.48577280	         35.84771892	         -0.31793703	          0.00000000	         -0.06639177	          0.00000000	          0.00000000	          0.00000000	          0.00000000	         -0.58326724	          0.00000000	
          1.66000000	          0.00000000	          0.00000000	          0.00000000	          0.00000000	          0.00000000	          0.00000000	         22.57390666	        556.08496640	         35.89625585	         -0.31760606	          0.00000000	         -0.06653602	          0.00000000	          0.00000000	          0.00000000	          0.00000000	         -0.58354039	          0.00000000	
          1.66100000	          0.00000000	          0.00000000	          0.00000000	          0.00000000	          0.00000000	          0.00000000	         22.93272824	        557.58868313	         35.92120765	         -0.31728225	          0.00000000	         -0.06672346	          0.00000000	          0.00000000	          0.00000000	          0.00000000	         -0.59484189	          0.00000000	
          1.66200000	          0.00000000	          0.00000000	          0.00000000	          0.00000000	          0.00000000	          0.00000000	         23.30395348	        559.07402115	         35.93791828	         -0.31696013	          0.00000000	         -0.06691736	          0.00000000	          0.00000000	          0.00000000	          0.00000000	         -0.61155516	          0.00000000	
          1.66300000	          0.00000000	          0.00000000	          0.00000000	          0.00000000	          0.00000000	          0.00000000	         23.68086655	        560.62477823	         35.96881979	         -0.31663738	          0.00000000	         -0.06705509	          0.00000000	          0.00000000	          0.00000000	          0.00000000	         -0.62366873	          0.00000000	
          1.66400000	          0.00000000	          0.00000000	          0.00000000	          0.00000000	          0.00000000	          0.00000000	         24.05235153	        562.30349929	         36.03043345	         -0.31630700	          0.00000000	         -0.06710913	          0.00000000	          0.00000000	          0.00000000	          0.00000000	         -0.62721037	          0.00000000	
          1.66500000	          0.00000000	          0.00000000	          0.00000000	          0.00000000	          0.00000000	          0.00000000	         24.40358830	        564.10950015	         36.12332328	         -0.31596246	          0.00000000	         -0.06710905	          0.00000000	          0.00000000	          0.00000000	          0.00000000	         -0.62715984	          0.00000000	
          1.66600000	          0.00000000	          0.00000000	          0.00000000	          0.00000000	          0.00000000	          0.00000000	         24.73027284	        565.95911558	         36.23463548	         -0.31561093	          0.00000000	         -0.06710523	          0.00000000	          0.00000000	          0.00000000	          0.00000000	         -0.63102941	          0.00000000	
          1.66700000	          0.00000000	          0.00000000	          0.00000000	          0.00000000	          0.00000000	          0.00000000	         25.04732110	        567.73883833	         36.34976058	         -0.31526699	          0.00000000	         -0.06713143	          0.00000000	          0.00000000	          0.00000000	          0.00000000	         -0.64170778	          0.00000000	
          1.66800000	          0.00000000	          0.00000000	          0.00000000	          0.00000000	          0.00000000	          0.00000000	         25.37618018	        569.39871471	         36.46359220	         -0.31493219	          0.00000000	         -0.06719851	          0.00000000	          0.00000000	          0.00000000	          0.00000000	         -0.65566095	          0.00000000	
          1.66900000	          0.00000000	          0.00000000	          0.00000000	          0.00000000	          0.00000000	          0.00000000	         25.72555613	        570.98535821	         36.58085660	         -0.31459429	          0.00000000	         -0.06728937	          0.00000000	          0.00000000	          0.00000000	          0.00000000	         -0.66746805	          0.00000000	
          1.67000000	          0.00000000	          0.00000000	          0.00000000	          0.00000000	          0.00000000	          0.00000000	         26.08840960	        572.58213685	         36.70459049	         -0.31425171	          0.00000000	         -0.06736569	          0.00000000	          0.00000000	          0.00000000	          0.00000000	         -0.67537144	          0.00000000	
